<svg width="1440" height="884" viewBox="0 0 1440 884" fill="none" xmlns="http://www.w3.org/2000/svg">
<g filter="url(#filter0_i_151_3)">
<path fill-rule="evenodd" clip-rule="evenodd" d="M0 85.3914L15.6 121.363C32.4 157.334 63.6 196.111 96 190.116C128.4 184.121 159.6 133.353 192 97.3818C224.4 61.4105 255.6 73.4009 288 91.3866C320.4 109.372 351.6 133.353 384 157.334C416.4 181.315 447.6 205.296 480 181.315C512.4 157.334 555.568 91.3866 587.968 85.3914C620.368 79.3961 639.6 133.353 672 157.334C704.4 181.315 735.6 169.324 768 175.32C800.4 181.315 831.6 205.296 864 223.281C896.4 241.267 1023.6 253.257 1056 211.291C1088.4 169.324 1119.6 80.029 1152 56.0482C1184.4 32.0673 1215.6 73.4009 1248 121.363C1280.4 169.324 1221.43 193.305 1253.83 181.315C1286.23 169.324 1311.6 121.363 1344 115.367C1376.4 109.372 1407.6 169.324 1424.4 199.3L1440 229.276V337.19H1424.4C1407.6 337.19 1376.4 337.19 1344 337.19C1311.6 337.19 1280.4 337.19 1248 337.19C1215.6 337.19 1184.4 337.19 1152 337.19C1119.6 337.19 1088.4 337.19 1056 337.19C1023.6 337.19 992.4 337.19 960 337.19C927.6 337.19 896.4 337.19 864 337.19C831.6 337.19 800.4 337.19 768 337.19C735.6 337.19 704.4 337.19 672 337.19C639.6 337.19 608.4 337.19 576 337.19C543.6 337.19 512.4 337.19 480 337.19C447.6 337.19 416.4 337.19 384 337.19C351.6 337.19 320.4 337.19 288 337.19C255.6 337.19 224.4 337.19 192 337.19C159.6 337.19 128.4 337.19 96 337.19C63.6 337.19 32.4 337.19 15.6 337.19H0V85.3914Z" fill="#ADF0B4"/>
</g>
<g filter="url(#filter1_i_151_3)">
<path fill-rule="evenodd" clip-rule="evenodd" d="M0 118.567L14 129.073C33.2 147.083 80.5 102.058 106 131.074C123.6 163.593 184.8 264.149 222 234.132C258 204.115 295.2 120.068 332.4 66.0373C369.6 12.0068 405.6 -12.0068 442.8 30.017C480 72.0407 517.2 180.102 554.4 204.115C590.4 228.129 627.6 168.095 664.8 120.068C702 72.0407 738 36.0204 775.2 36.0204C812.4 36.0204 849.6 101.057 885.6 101.057C922.8 101.057 981.3 48.0272 1018.5 42.0238C1055.7 36.0204 1070.4 48.0272 1107.6 72.0407C1144.8 96.0543 1182 120.068 1218 126.071C1255.2 132.075 1292.4 120.068 1329.6 96.0543C1365.6 72.0407 1402.8 36.0204 1422 18.0102L1440 0V324.183H1422C1402.8 324.183 1365.6 324.183 1329.6 324.183C1292.4 324.183 1255.2 324.183 1218 324.183C1182 324.183 1144.8 324.183 1107.6 324.183C1070.4 324.183 1034.4 324.183 997.2 324.183C960 324.183 922.8 324.183 885.6 324.183C849.6 324.183 812.4 324.183 775.2 324.183C738 324.183 702 324.183 664.8 324.183C627.6 324.183 590.4 324.183 554.4 324.183C517.2 324.183 480 324.183 442.8 324.183C405.6 324.183 369.6 324.183 332.4 324.183C295.2 324.183 258 324.183 222 324.183C184.8 324.183 147.6 324.183 110.4 324.183C74.4 324.183 37.2 324.183 18 324.183H0V118.567Z" fill="#98C900"/>
</g>
<g filter="url(#filter2_i_151_3)">
<path fill-rule="evenodd" clip-rule="evenodd" d="M0 113.323L20.25 145.308C40.5 177.294 57 217.172 97.5 204.178C136.875 191.184 146.125 141.129 185.5 128.135C226 115.141 319.5 164.3 360 171.296C400.5 177.294 439.875 126.317 480.375 100.329C519.75 75.3404 560.25 75.3404 599.625 107.326C640.125 139.311 679.5 203.282 720 196.285C760.5 190.288 804.75 127.119 845.25 76.1429C884.625 25.1663 925.125 10.3702 964.5 23.3643C1005 36.3583 1039.5 62.3464 1080 107.326C1120.5 151.306 1174.5 208.153 1215 182.165C1254.38 157.177 1280.25 49.3523 1319.62 17.367C1360.12 -14.6183 1399.5 11.3698 1419.75 23.3643L1440 36.3583V884H1419.75C1399.5 884 1360.12 884 1319.62 884C1280.25 884 1239.75 884 1200.38 884C1159.88 884 1120.5 884 1080 884C1039.5 884 1000.12 884 959.625 884C920.25 884 879.75 884 840.375 884C799.875 884 760.5 884 720 884C679.5 884 640.125 884 599.625 884C560.25 884 519.75 884 480.375 884C439.875 884 400.5 884 360 884C319.5 884 280.125 884 239.625 884C200.25 884 159.75 884 120.375 884C79.875 884 40.5 884 20.25 884H0V113.323Z" fill="#48A651"/>
</g>
<defs>
<filter id="filter0_i_151_3" x="0" y="49.0273" width="1440" height="300.163" filterUnits="userSpaceOnUse" color-interpolation-filters="sRGB">
<feFlood flood-opacity="0" result="BackgroundImageFix"/>
<feBlend mode="normal" in="SourceGraphic" in2="BackgroundImageFix" result="shape"/>
<feColorMatrix in="SourceAlpha" type="matrix" values="0 0 0 0 0 0 0 0 0 0 0 0 0 0 0 0 0 0 127 0" result="hardAlpha"/>
<feOffset dy="12"/>
<feGaussianBlur stdDeviation="9"/>
<feComposite in2="hardAlpha" operator="arithmetic" k2="-1" k3="1"/>
<feColorMatrix type="matrix" values="0 0 0 0 0 0 0 0 0 0 0 0 0 0 0 0 0 0 0.25 0"/>
<feBlend mode="normal" in2="shape" result="effect1_innerShadow_151_3"/>
</filter>
<filter id="filter1_i_151_3" x="0" y="0" width="1440" height="328.184" filterUnits="userSpaceOnUse" color-interpolation-filters="sRGB">
<feFlood flood-opacity="0" result="BackgroundImageFix"/>
<feBlend mode="normal" in="SourceGraphic" in2="BackgroundImageFix" result="shape"/>
<feColorMatrix in="SourceAlpha" type="matrix" values="0 0 0 0 0 0 0 0 0 0 0 0 0 0 0 0 0 0 127 0" result="hardAlpha"/>
<feOffset dy="4"/>
<feGaussianBlur stdDeviation="3"/>
<feComposite in2="hardAlpha" operator="arithmetic" k2="-1" k3="1"/>
<feColorMatrix type="matrix" values="0 0 0 0 1 0 0 0 0 1 0 0 0 0 1 0 0 0 1 0"/>
<feBlend mode="normal" in2="shape" result="effect1_innerShadow_151_3"/>
</filter>
<filter id="filter2_i_151_3" x="0" y="2.00098" width="1440" height="885.999" filterUnits="userSpaceOnUse" color-interpolation-filters="sRGB">
<feFlood flood-opacity="0" result="BackgroundImageFix"/>
<feBlend mode="normal" in="SourceGraphic" in2="BackgroundImageFix" result="shape"/>
<feColorMatrix in="SourceAlpha" type="matrix" values="0 0 0 0 0 0 0 0 0 0 0 0 0 0 0 0 0 0 127 0" result="hardAlpha"/>
<feOffset dy="7"/>
<feGaussianBlur stdDeviation="2"/>
<feComposite in2="hardAlpha" operator="arithmetic" k2="-1" k3="1"/>
<feColorMatrix type="matrix" values="0 0 0 0 1 0 0 0 0 1 0 0 0 0 1 0 0 0 0.25 0"/>
<feBlend mode="normal" in2="shape" result="effect1_innerShadow_151_3"/>
</filter>
</defs>
</svg>
