<svg width="355" height="128" viewBox="0 0 355 128" fill="none" xmlns="http://www.w3.org/2000/svg">
<g filter="url(#filter0_d_85_227)">
<mask id="path-1-outside-1_85_227" maskUnits="userSpaceOnUse" x="20" y="16" width="313" height="99" fill="black">
<rect fill="white" x="20" y="16" width="313" height="99"/>
<path d="M41.1813 87.1C47.5813 76.2333 52.7813 68.1667 56.7813 62.9C60.8479 57.5667 64.1479 54.9 66.6813 54.9C69.2813 54.9 71.7146 56.2667 73.9813 59C76.3146 61.7333 77.4813 64.6333 77.4813 67.7C77.4813 72.5 76.3813 78.3667 74.1813 85.3C70.1813 98.1 66.5813 104.5 63.3813 104.5C61.9146 104.5 61.1813 103.5 61.1813 101.5C61.1813 100.1 61.8813 97.2667 63.2813 93C64.7479 88.6667 66.0813 84.4333 67.2813 80.3C68.5479 76.1 69.1813 72.9667 69.1813 70.9C69.1813 68.7667 68.8479 67.2 68.1813 66.2C67.5813 65.2 66.9479 64.7 66.2813 64.7C65.6813 64.7 65.0479 64.9 64.3813 65.3C63.7146 65.7 62.9479 66.3667 62.0813 67.3C61.2813 68.2333 60.5146 69.1667 59.7813 70.1C59.0479 70.9667 58.1146 72.2333 56.9813 73.9C55.9146 75.5667 55.0146 77 54.2813 78.2C53.5479 79.3333 52.4813 81 51.0813 83.2C49.6813 85.4 48.6146 87.0667 47.8813 88.2C47.1479 89.3333 46.1813 90.8667 44.9813 92.8C43.7813 94.7333 42.8146 96.2333 42.0813 97.3C41.4146 98.3667 40.6479 99.5333 39.7813 100.8C38.1146 103.267 36.7813 104.5 35.7813 104.5C34.8479 104.5 33.7479 103.767 32.4813 102.3C31.2146 100.767 30.5813 99.4333 30.5813 98.3C30.5813 97.9667 30.8146 97.0667 31.2813 95.6C32.5479 91.7333 33.9479 86.9667 35.4813 81.3C37.0146 75.5667 37.8479 69.0667 37.9813 61.8C38.1813 56.9333 38.8813 54.5 40.0813 54.5C41.5479 54.5 43.0146 55.2667 44.4813 56.8C45.9479 58.3333 46.6813 60.0333 46.6813 61.9C46.6813 63.7 46.1146 67.2333 44.9813 72.5C43.9146 77.7 42.6479 82.5667 41.1813 87.1ZM110.002 42.8L92.9016 43.6C91.8349 43.6 90.7349 42.9 89.6016 41.5C88.4682 40.1 87.9016 38.7333 87.9016 37.4C87.9016 36.2 89.8016 35.4333 93.6016 35.1C97.4682 34.7667 105.902 34.6 118.902 34.6C125.635 34.6 131.168 35.3333 135.502 36.8C139.902 38.2667 142.102 39.9 142.102 41.7C142.102 42.9667 141.002 43.6 138.802 43.6C136.602 43.6 133.535 43.4667 129.602 43.2C125.668 42.9333 121.902 42.7667 118.302 42.7C118.502 43.3667 118.602 44.1 118.602 44.9C118.602 47.3667 116.002 58.8333 110.802 79.3C110.268 81.4333 109.468 84.7667 108.402 89.3C107.335 93.8333 106.535 97 106.002 98.8C105.068 102.333 104.235 104.1 103.502 104.1C102.502 104.1 101.368 103.367 100.102 101.9C98.9016 100.367 98.3016 98.8333 98.3016 97.3C98.3016 95.7667 100.102 87.9 103.702 73.7C107.302 59.4333 109.402 49.1333 110.002 42.8ZM168.417 71.9C168.417 69.6333 168.051 67.5 167.317 65.5C166.584 63.4333 165.517 61.9333 164.117 61C159.517 62.2667 155.551 65.8333 152.217 71.7C148.951 77.5 147.317 82.9667 147.317 88.1C147.317 93.2333 148.584 96.4333 151.117 97.7C155.917 96.7667 159.984 93.5 163.317 87.9C166.717 82.2333 168.417 76.9 168.417 71.9ZM142.117 72.8C144.451 67.6 147.484 63.3333 151.217 60C155.017 56.6 158.884 54.9 162.817 54.9C166.817 54.9 170.151 56.6 172.817 60C175.484 63.3333 176.817 67.4333 176.817 72.3C176.817 77.1 175.651 82.0333 173.317 87.1C170.984 92.1 167.751 96.2667 163.617 99.6C159.551 102.867 155.217 104.5 150.617 104.5C147.217 104.5 144.384 102.933 142.117 99.8C139.851 96.6667 138.717 92.7 138.717 87.9C138.717 83.0333 139.851 78 142.117 72.8ZM218.93 57.7C219.196 56.6333 219.463 55.9 219.73 55.5C219.996 55.1 220.563 54.9 221.43 54.9C222.363 54.9 223.463 55.7667 224.73 57.5C226.063 59.2333 226.73 60.9 226.73 62.5C226.73 63.3667 225.263 68.5 222.33 77.9C219.396 87.3 217.13 94.7667 215.53 100.3C214.73 103.1 213.596 104.5 212.13 104.5C211.263 104.5 210.53 104.133 209.93 103.4C209.33 102.667 209.03 101.333 209.03 99.4C209.03 97.4667 209.796 93.9667 211.33 88.9C208.53 93.4333 205.496 97.1667 202.23 100.1C198.963 103.033 195.963 104.5 193.23 104.5C190.563 104.5 188.03 103.233 185.63 100.7C183.23 98.1667 182.03 95.5667 182.03 92.9C182.03 86.5667 183.863 78.6667 187.53 69.2C191.263 59.6667 194.363 54.9 196.83 54.9C198.03 54.9 199.063 55.4667 199.93 56.6C200.863 57.6667 201.33 58.9 201.33 60.3C201.33 60.9 200.43 63.0667 198.63 66.8C196.83 70.4667 195.03 74.8 193.23 79.8C191.43 84.7333 190.53 89.0667 190.53 92.8C190.53 93.8667 190.863 94.7667 191.53 95.5C192.196 96.1667 192.996 96.5 193.93 96.5C196.463 96.5 199.463 94.2667 202.93 89.8C206.463 85.3333 209.663 80.1333 212.53 74.2C215.396 68.2667 217.53 62.7667 218.93 57.7ZM247.774 104.5C243.908 104.5 240.274 103 236.874 100C233.474 96.9333 231.774 93.3333 231.774 89.2C231.774 85 233.174 80.1667 235.974 74.7C238.774 69.2333 242.374 64.5667 246.774 60.7C251.241 56.8333 255.574 54.9 259.774 54.9C262.508 54.9 264.908 56.1333 266.974 58.6C269.041 61.0667 270.074 63.2333 270.074 65.1C270.074 65.6333 269.908 66.1 269.574 66.5C269.241 66.8333 268.741 67 268.074 67C267.474 67 266.374 66.4 264.774 65.2C263.174 64 261.741 63.4 260.474 63.4C256.874 63.4 252.674 66.5667 247.874 72.9C243.074 79.2333 240.674 84.7667 240.674 89.5C240.674 91.5667 241.308 93.2 242.574 94.4C243.908 95.6 246.008 96.2 248.874 96.2C251.808 96.2 254.474 95.8667 256.874 95.2C259.341 94.4667 261.241 93.7667 262.574 93.1C263.908 92.3667 264.941 92 265.674 92C266.941 92 267.574 92.6333 267.574 93.9C267.574 95.8333 265.241 98.1 260.574 100.7C255.974 103.233 251.708 104.5 247.774 104.5ZM288.005 30.8C288.005 28.2 288.805 26.9 290.405 26.9C291.672 26.9 293.005 27.9 294.405 29.9C295.872 31.9 296.605 33.8333 296.605 35.7C296.605 40.0333 295.505 47.4333 293.305 57.9C291.172 68.3 288.372 78.7 284.905 89.1C291.572 77.0333 297.139 68.3333 301.605 63C306.139 57.6 310.005 54.9 313.205 54.9C314.939 54.9 316.939 56.4 319.205 59.4C321.539 62.4 322.705 65.4 322.705 68.4C322.705 71.4 321.872 75.9 320.205 81.9C316.072 96.9667 312.172 104.5 308.505 104.5C307.039 104.5 306.305 103.5 306.305 101.5C306.305 99.5 307.105 96.1333 308.705 91.4C312.239 81.0667 314.005 74.1 314.005 70.5C314.005 69.3 313.705 68.3 313.105 67.5C312.505 66.7 311.772 66.3 310.905 66.3C310.039 66.3 308.972 66.7667 307.705 67.7C306.439 68.6333 304.905 70.2667 303.105 72.6C300.839 75.6 298.472 78.9667 296.005 82.7C293.605 86.4333 292.139 88.7 291.605 89.5C291.139 90.2333 290.272 91.6 289.005 93.6C287.805 95.6 286.905 97.1 286.305 98.1C285.705 99.0333 284.972 100.067 284.105 101.2C282.572 103.4 281.405 104.5 280.605 104.5C279.805 104.5 278.739 103.767 277.405 102.3C276.072 100.767 275.405 99.5 275.405 98.5C275.405 97.4333 275.772 95.4667 276.505 92.6C279.839 79.8 281.939 71.0333 282.805 66.3C286.272 48.9667 288.005 37.1333 288.005 30.8Z"/>
</mask>
<path d="M41.1813 87.1C47.5813 76.2333 52.7813 68.1667 56.7813 62.9C60.8479 57.5667 64.1479 54.9 66.6813 54.9C69.2813 54.9 71.7146 56.2667 73.9813 59C76.3146 61.7333 77.4813 64.6333 77.4813 67.7C77.4813 72.5 76.3813 78.3667 74.1813 85.3C70.1813 98.1 66.5813 104.5 63.3813 104.5C61.9146 104.5 61.1813 103.5 61.1813 101.5C61.1813 100.1 61.8813 97.2667 63.2813 93C64.7479 88.6667 66.0813 84.4333 67.2813 80.3C68.5479 76.1 69.1813 72.9667 69.1813 70.9C69.1813 68.7667 68.8479 67.2 68.1813 66.2C67.5813 65.2 66.9479 64.7 66.2813 64.7C65.6813 64.7 65.0479 64.9 64.3813 65.3C63.7146 65.7 62.9479 66.3667 62.0813 67.3C61.2813 68.2333 60.5146 69.1667 59.7813 70.1C59.0479 70.9667 58.1146 72.2333 56.9813 73.9C55.9146 75.5667 55.0146 77 54.2813 78.2C53.5479 79.3333 52.4813 81 51.0813 83.2C49.6813 85.4 48.6146 87.0667 47.8813 88.2C47.1479 89.3333 46.1813 90.8667 44.9813 92.8C43.7813 94.7333 42.8146 96.2333 42.0813 97.3C41.4146 98.3667 40.6479 99.5333 39.7813 100.8C38.1146 103.267 36.7813 104.5 35.7813 104.5C34.8479 104.5 33.7479 103.767 32.4813 102.3C31.2146 100.767 30.5813 99.4333 30.5813 98.3C30.5813 97.9667 30.8146 97.0667 31.2813 95.6C32.5479 91.7333 33.9479 86.9667 35.4813 81.3C37.0146 75.5667 37.8479 69.0667 37.9813 61.8C38.1813 56.9333 38.8813 54.5 40.0813 54.5C41.5479 54.5 43.0146 55.2667 44.4813 56.8C45.9479 58.3333 46.6813 60.0333 46.6813 61.9C46.6813 63.7 46.1146 67.2333 44.9813 72.5C43.9146 77.7 42.6479 82.5667 41.1813 87.1ZM110.002 42.8L92.9016 43.6C91.8349 43.6 90.7349 42.9 89.6016 41.5C88.4682 40.1 87.9016 38.7333 87.9016 37.4C87.9016 36.2 89.8016 35.4333 93.6016 35.1C97.4682 34.7667 105.902 34.6 118.902 34.6C125.635 34.6 131.168 35.3333 135.502 36.8C139.902 38.2667 142.102 39.9 142.102 41.7C142.102 42.9667 141.002 43.6 138.802 43.6C136.602 43.6 133.535 43.4667 129.602 43.2C125.668 42.9333 121.902 42.7667 118.302 42.7C118.502 43.3667 118.602 44.1 118.602 44.9C118.602 47.3667 116.002 58.8333 110.802 79.3C110.268 81.4333 109.468 84.7667 108.402 89.3C107.335 93.8333 106.535 97 106.002 98.8C105.068 102.333 104.235 104.1 103.502 104.1C102.502 104.1 101.368 103.367 100.102 101.9C98.9016 100.367 98.3016 98.8333 98.3016 97.3C98.3016 95.7667 100.102 87.9 103.702 73.7C107.302 59.4333 109.402 49.1333 110.002 42.8ZM168.417 71.9C168.417 69.6333 168.051 67.5 167.317 65.5C166.584 63.4333 165.517 61.9333 164.117 61C159.517 62.2667 155.551 65.8333 152.217 71.7C148.951 77.5 147.317 82.9667 147.317 88.1C147.317 93.2333 148.584 96.4333 151.117 97.7C155.917 96.7667 159.984 93.5 163.317 87.9C166.717 82.2333 168.417 76.9 168.417 71.9ZM142.117 72.8C144.451 67.6 147.484 63.3333 151.217 60C155.017 56.6 158.884 54.9 162.817 54.9C166.817 54.9 170.151 56.6 172.817 60C175.484 63.3333 176.817 67.4333 176.817 72.3C176.817 77.1 175.651 82.0333 173.317 87.1C170.984 92.1 167.751 96.2667 163.617 99.6C159.551 102.867 155.217 104.5 150.617 104.5C147.217 104.5 144.384 102.933 142.117 99.8C139.851 96.6667 138.717 92.7 138.717 87.9C138.717 83.0333 139.851 78 142.117 72.8ZM218.93 57.7C219.196 56.6333 219.463 55.9 219.73 55.5C219.996 55.1 220.563 54.9 221.43 54.9C222.363 54.9 223.463 55.7667 224.73 57.5C226.063 59.2333 226.73 60.9 226.73 62.5C226.73 63.3667 225.263 68.5 222.33 77.9C219.396 87.3 217.13 94.7667 215.53 100.3C214.73 103.1 213.596 104.5 212.13 104.5C211.263 104.5 210.53 104.133 209.93 103.4C209.33 102.667 209.03 101.333 209.03 99.4C209.03 97.4667 209.796 93.9667 211.33 88.9C208.53 93.4333 205.496 97.1667 202.23 100.1C198.963 103.033 195.963 104.5 193.23 104.5C190.563 104.5 188.03 103.233 185.63 100.7C183.23 98.1667 182.03 95.5667 182.03 92.9C182.03 86.5667 183.863 78.6667 187.53 69.2C191.263 59.6667 194.363 54.9 196.83 54.9C198.03 54.9 199.063 55.4667 199.93 56.6C200.863 57.6667 201.33 58.9 201.33 60.3C201.33 60.9 200.43 63.0667 198.63 66.8C196.83 70.4667 195.03 74.8 193.23 79.8C191.43 84.7333 190.53 89.0667 190.53 92.8C190.53 93.8667 190.863 94.7667 191.53 95.5C192.196 96.1667 192.996 96.5 193.93 96.5C196.463 96.5 199.463 94.2667 202.93 89.8C206.463 85.3333 209.663 80.1333 212.53 74.2C215.396 68.2667 217.53 62.7667 218.93 57.7ZM247.774 104.5C243.908 104.5 240.274 103 236.874 100C233.474 96.9333 231.774 93.3333 231.774 89.2C231.774 85 233.174 80.1667 235.974 74.7C238.774 69.2333 242.374 64.5667 246.774 60.7C251.241 56.8333 255.574 54.9 259.774 54.9C262.508 54.9 264.908 56.1333 266.974 58.6C269.041 61.0667 270.074 63.2333 270.074 65.1C270.074 65.6333 269.908 66.1 269.574 66.5C269.241 66.8333 268.741 67 268.074 67C267.474 67 266.374 66.4 264.774 65.2C263.174 64 261.741 63.4 260.474 63.4C256.874 63.4 252.674 66.5667 247.874 72.9C243.074 79.2333 240.674 84.7667 240.674 89.5C240.674 91.5667 241.308 93.2 242.574 94.4C243.908 95.6 246.008 96.2 248.874 96.2C251.808 96.2 254.474 95.8667 256.874 95.2C259.341 94.4667 261.241 93.7667 262.574 93.1C263.908 92.3667 264.941 92 265.674 92C266.941 92 267.574 92.6333 267.574 93.9C267.574 95.8333 265.241 98.1 260.574 100.7C255.974 103.233 251.708 104.5 247.774 104.5ZM288.005 30.8C288.005 28.2 288.805 26.9 290.405 26.9C291.672 26.9 293.005 27.9 294.405 29.9C295.872 31.9 296.605 33.8333 296.605 35.7C296.605 40.0333 295.505 47.4333 293.305 57.9C291.172 68.3 288.372 78.7 284.905 89.1C291.572 77.0333 297.139 68.3333 301.605 63C306.139 57.6 310.005 54.9 313.205 54.9C314.939 54.9 316.939 56.4 319.205 59.4C321.539 62.4 322.705 65.4 322.705 68.4C322.705 71.4 321.872 75.9 320.205 81.9C316.072 96.9667 312.172 104.5 308.505 104.5C307.039 104.5 306.305 103.5 306.305 101.5C306.305 99.5 307.105 96.1333 308.705 91.4C312.239 81.0667 314.005 74.1 314.005 70.5C314.005 69.3 313.705 68.3 313.105 67.5C312.505 66.7 311.772 66.3 310.905 66.3C310.039 66.3 308.972 66.7667 307.705 67.7C306.439 68.6333 304.905 70.2667 303.105 72.6C300.839 75.6 298.472 78.9667 296.005 82.7C293.605 86.4333 292.139 88.7 291.605 89.5C291.139 90.2333 290.272 91.6 289.005 93.6C287.805 95.6 286.905 97.1 286.305 98.1C285.705 99.0333 284.972 100.067 284.105 101.2C282.572 103.4 281.405 104.5 280.605 104.5C279.805 104.5 278.739 103.767 277.405 102.3C276.072 100.767 275.405 99.5 275.405 98.5C275.405 97.4333 275.772 95.4667 276.505 92.6C279.839 79.8 281.939 71.0333 282.805 66.3C286.272 48.9667 288.005 37.1333 288.005 30.8Z" fill="white"/>
<path d="M41.1813 87.1L31.6668 84.0218C30.0972 88.8734 32.4294 94.1291 37.0801 96.2203C41.7308 98.3116 47.2101 96.5686 49.7979 92.1748L41.1813 87.1ZM56.7813 62.9L48.8292 56.8366C48.8254 56.8416 48.8215 56.8467 48.8177 56.8517L56.7813 62.9ZM73.9813 59L66.2837 65.3834C66.3141 65.42 66.3447 65.4564 66.3756 65.4926L73.9813 59ZM74.1813 85.3L64.6496 82.2755C64.6452 82.2894 64.6408 82.3033 64.6365 82.3172L74.1813 85.3ZM63.2813 93L53.8091 89.794C53.7991 89.8234 53.7893 89.8528 53.7797 89.8823L63.2813 93ZM67.2812 80.3L57.7072 77.4126C57.6972 77.4456 57.6874 77.4787 57.6778 77.5119L67.2812 80.3ZM68.1813 66.2L59.6063 71.345C59.6879 71.481 59.7728 71.615 59.8607 71.747L68.1813 66.2ZM64.3813 65.3L69.5262 73.8749L69.5262 73.8749L64.3813 65.3ZM62.0813 67.3L54.7533 60.4955C54.6632 60.5926 54.5749 60.6915 54.4887 60.7921L62.0813 67.3ZM59.7813 70.1L67.4151 76.5594C67.4933 76.4671 67.5697 76.3733 67.6444 76.2782L59.7813 70.1ZM56.9813 73.9L48.712 68.2769C48.6598 68.3537 48.6086 68.4312 48.5585 68.5095L56.9813 73.9ZM54.2813 78.2L62.677 83.6325C62.7236 83.5604 62.7693 83.4878 62.8141 83.4145L54.2813 78.2ZM51.0813 83.2L42.6446 77.8312H42.6446L51.0813 83.2ZM47.8813 88.2L56.277 93.6325L47.8813 88.2ZM44.9813 92.8L53.4776 98.0736L53.4777 98.0736L44.9813 92.8ZM42.0813 97.3L33.8408 91.6347C33.7583 91.7547 33.6785 91.8765 33.6013 92L42.0813 97.3ZM39.7812 100.8L31.5282 95.1532C31.5172 95.1692 31.5063 95.1853 31.4954 95.2014L39.7812 100.8ZM32.4813 102.3L24.7716 108.669C24.8181 108.725 24.8653 108.781 24.913 108.836L32.4813 102.3ZM31.2812 95.6L21.7782 92.4869C21.7693 92.5139 21.7606 92.5409 21.752 92.568L31.2812 95.6ZM35.4813 81.3L45.1341 83.9119C45.1367 83.9025 45.1392 83.8931 45.1417 83.8836L35.4813 81.3ZM37.9813 61.8L27.9897 61.3894C27.9866 61.4651 27.9843 61.5408 27.9829 61.6165L37.9813 61.8ZM44.4813 56.8L37.2548 63.7122L37.2548 63.7122L44.4813 56.8ZM44.9813 72.5L35.205 70.3963C35.1983 70.4277 35.1917 70.4591 35.1852 70.4906L44.9813 72.5ZM49.7979 92.1748C56.1429 81.4015 61.1062 73.7391 64.7448 68.9483L48.8177 56.8517C44.4563 62.5942 39.0196 71.0652 32.5646 82.0252L49.7979 92.1748ZM64.7333 68.9634C66.527 66.611 67.8148 65.3055 68.5915 64.6779C68.9611 64.3792 69.0268 64.3888 68.7951 64.4947C68.555 64.6045 67.8108 64.9 66.6813 64.9V44.9C62.0289 44.9 58.3501 47.24 56.021 49.1221C53.4977 51.1611 51.1022 53.8556 48.8292 56.8366L64.7333 68.9634ZM66.6813 64.9C66.4435 64.9 66.202 64.8672 65.9796 64.8068C65.7609 64.7474 65.6185 64.6772 65.5593 64.6439C65.4602 64.5883 65.729 64.7145 66.2837 65.3834L81.6788 52.6166C78.2462 48.4773 73.2423 44.9 66.6813 44.9V64.9ZM66.3756 65.4926C67.4434 66.7435 67.4813 67.4117 67.4813 67.7H87.4813C87.4813 61.8549 85.1858 56.7232 81.5869 52.5074L66.3756 65.4926ZM67.4813 67.7C67.4813 71.0897 66.6819 75.8707 64.6496 82.2755L83.7129 88.3245C86.0806 80.8626 87.4813 73.9103 87.4813 67.7H67.4813ZM64.6365 82.3172C62.7041 88.5007 61.0504 92.5131 59.7655 94.7974C59.1123 95.9587 58.8182 96.1916 59.0026 96.018C59.1645 95.8656 60.6736 94.5 63.3813 94.5V114.5C67.6889 114.5 70.848 112.334 72.7099 110.582C74.5943 108.808 76.0502 106.641 77.197 104.603C79.5121 100.487 81.6584 94.8993 83.7261 88.2827L64.6365 82.3172ZM63.3813 94.5C64.143 94.5 65.285 94.6308 66.5568 95.2088C67.8845 95.8123 68.9928 96.7421 69.7953 97.8364C70.5544 98.8715 70.8863 99.8391 71.0327 100.438C71.1773 101.029 71.1813 101.421 71.1813 101.5H51.1813C51.1813 103.427 51.482 106.684 53.6672 109.664C56.2766 113.222 60.1225 114.5 63.3813 114.5V94.5ZM71.1813 101.5C71.1813 101.903 71.1386 102.054 71.1785 101.813C71.2114 101.614 71.2814 101.262 71.4144 100.723C71.6818 99.641 72.1241 98.1253 72.7828 96.1177L53.7797 89.8823C53.0384 92.1413 52.4307 94.1756 51.9981 95.9265C51.6162 97.4725 51.1813 99.5183 51.1813 101.5H71.1813ZM72.7534 96.206C74.264 91.7429 75.6416 87.3701 76.8847 83.0881L57.6778 77.5119C56.5209 81.4966 55.2318 85.5904 53.8091 89.794L72.7534 96.206ZM76.8553 83.1874C78.1613 78.8571 79.1813 74.5303 79.1813 70.9H59.1813C59.1813 71.403 58.9345 73.3429 57.7072 77.4126L76.8553 83.1874ZM79.1813 70.9C79.1813 68.1299 78.8239 64.1362 76.5018 60.653L59.8607 71.747C59.5736 71.3163 59.401 70.9432 59.301 70.6865C59.2014 70.431 59.1616 70.2595 59.1502 70.2061C59.1325 70.1229 59.1813 70.3178 59.1813 70.9H79.1813ZM76.7562 61.055C75.714 59.3181 72.4807 54.7 66.2812 54.7V74.7C63.9221 74.7 62.1248 73.7646 61.0598 72.9238C60.1044 72.1696 59.6755 71.4603 59.6063 71.345L76.7562 61.055ZM66.2812 54.7C63.4072 54.7 61.0068 55.6628 59.2363 56.7251L69.5262 73.8749C69.0891 74.1372 67.9553 74.7 66.2812 74.7V54.7ZM59.2363 56.7251C57.4139 57.8185 55.9082 59.2518 54.7533 60.4955L69.4092 74.1045C69.5304 73.974 69.6307 73.8716 69.7103 73.7936C69.7903 73.7152 69.8427 73.6681 69.868 73.6461C69.8939 73.6235 69.8819 73.6356 69.8326 73.6723C69.7842 73.7083 69.6817 73.7817 69.5262 73.8749L59.2363 56.7251ZM54.4887 60.7921C53.5994 61.8296 52.7423 62.8728 51.9181 63.9218L67.6444 76.2782C68.2869 75.4606 68.9631 74.6371 69.6738 73.8079L54.4887 60.7921ZM52.1474 63.6406C51.0788 64.9035 49.9166 66.5054 48.712 68.2769L65.2505 79.5231C66.3125 77.9613 67.0171 77.0298 67.4151 76.5594L52.1474 63.6406ZM48.5585 68.5095C47.4682 70.213 46.529 71.7082 45.7484 72.9855L62.8141 83.4145C63.5001 82.2918 64.3609 80.9203 65.404 79.2905L48.5585 68.5095ZM45.8855 72.7675C45.1312 73.9334 44.0482 75.6256 42.6446 77.8312L59.5179 88.5688C60.9143 86.3744 61.9647 84.7333 62.677 83.6325L45.8855 72.7675ZM42.6446 77.8312C41.2482 80.0256 40.1978 81.6667 39.4855 82.7675L56.277 93.6325C57.0313 92.4666 58.1143 90.7744 59.5179 88.5687L42.6446 77.8312ZM39.4856 82.7675C38.703 83.9769 37.6989 85.5704 36.4848 87.5264L53.4777 98.0736C54.6636 96.1629 55.5929 94.6898 56.277 93.6325L39.4856 82.7675ZM36.4849 87.5264C35.3157 89.4101 34.4439 90.7575 33.8408 91.6347L50.3217 102.965C51.1853 101.709 52.2468 100.057 53.4776 98.0736L36.4849 87.5264ZM33.6013 92C33.0216 92.9274 32.3331 93.9768 31.5282 95.1532L48.0343 106.447C48.9628 105.09 49.8075 103.806 50.5612 102.6L33.6013 92ZM31.4954 95.2014C30.8563 96.1472 30.6015 96.3629 30.7408 96.234C30.8244 96.1567 31.2176 95.7994 31.9207 95.4278C32.6257 95.0552 33.9655 94.5 35.7812 94.5V114.5C40.1803 114.5 43.1636 111.987 44.3217 110.916C45.7943 109.554 47.0395 107.919 48.0671 106.399L31.4954 95.2014ZM35.7812 94.5C37.9523 94.5 39.3666 95.3384 39.8033 95.6295C40.265 95.9373 40.34 96.1002 40.0495 95.7638L24.913 108.836C25.8891 109.966 27.1475 111.229 28.7092 112.271C30.2459 113.295 32.6769 114.5 35.7812 114.5V94.5ZM40.1909 95.9312C39.9138 95.5958 39.9539 95.5751 40.089 95.8594C40.2242 96.144 40.5812 97.0044 40.5812 98.3H20.5812C20.5812 102.958 23.0304 106.561 24.7716 108.669L40.1909 95.9312ZM40.5812 98.3C40.5812 98.5638 40.57 98.7853 40.558 98.9506C40.5459 99.1187 40.5308 99.2598 40.5176 99.3673C40.492 99.5762 40.4647 99.7286 40.4507 99.8027C40.4356 99.8825 40.4248 99.9292 40.4236 99.9345C40.4219 99.9418 40.4254 99.9265 40.4362 99.8846C40.4588 99.7976 40.4992 99.6501 40.5643 99.43C40.6285 99.2133 40.7097 98.9488 40.8105 98.632L21.752 92.568C21.4942 93.3782 21.2581 94.1639 21.0763 94.8654C20.9977 95.1685 20.5812 96.6693 20.5812 98.3H40.5812ZM40.7843 98.7131C42.1232 94.6261 43.5732 89.6804 45.1341 83.9119L25.8284 78.688C24.3226 84.253 22.9726 88.8406 21.7782 92.4869L40.7843 98.7131ZM45.1417 83.8836C46.9252 77.215 47.8345 69.887 47.9796 61.9835L27.9829 61.6165C27.8613 68.2463 27.104 73.9183 25.8208 78.7164L45.1417 83.8836ZM47.9728 62.2106C48.015 61.1845 48.0793 60.4022 48.1499 59.8299C48.2241 59.2275 48.2855 59.0235 48.2665 59.0896C48.2539 59.1336 48.1935 59.3381 48.0544 59.6458C47.9211 59.9406 47.6476 60.4822 47.1569 61.1106C46.662 61.7443 45.8356 62.6065 44.5797 63.3172C43.2578 64.0652 41.7094 64.5 40.0812 64.5V44.5C35.8537 44.5 32.934 46.8286 31.3931 48.8019C30.023 50.5566 29.3772 52.4089 29.046 53.5604C28.3569 55.9557 28.0982 58.748 27.9897 61.3894L47.9728 62.2106ZM40.0812 64.5C39.004 64.5 38.1595 64.2043 37.6487 63.9372C37.1887 63.6968 37.0726 63.5217 37.2548 63.7122L51.7077 49.8878C49.2051 47.2714 45.3021 44.5 40.0812 44.5V64.5ZM37.2548 63.7122C37.2844 63.7432 37.1171 63.5753 36.9491 63.1859C36.7717 62.7745 36.6813 62.3173 36.6813 61.9H56.6813C56.6813 57.1012 54.6914 53.0071 51.7077 49.8878L37.2548 63.7122ZM36.6813 61.9C36.6813 61.8716 36.6807 62.0508 36.631 62.5184C36.5839 62.962 36.5047 63.5544 36.3824 64.3165C36.1372 65.8457 35.7511 67.8588 35.205 70.3963L54.7575 74.6037C55.8527 69.514 56.6813 64.9408 56.6813 61.9H36.6813ZM35.1852 70.4906C34.1844 75.3695 33.008 79.8762 31.6668 84.0218L50.6957 90.1782C52.2878 85.2572 53.6448 80.0305 54.7773 74.5094L35.1852 70.4906ZM110.002 42.8L119.957 43.7431C120.23 40.8584 119.239 37.9969 117.239 35.8996C115.24 33.8023 112.429 32.6755 109.534 32.8109L110.002 42.8ZM92.9016 43.6V53.6C93.0574 53.6 93.2132 53.5964 93.3689 53.5891L92.9016 43.6ZM89.6016 41.5L97.374 35.208L97.374 35.208L89.6016 41.5ZM93.6016 35.1L92.7427 25.1369C92.7377 25.1374 92.7327 25.1378 92.7277 25.1382L93.6016 35.1ZM135.502 36.8L132.296 46.2722C132.31 46.2771 132.325 46.282 132.339 46.2868L135.502 36.8ZM129.602 43.2L128.925 53.1771L129.602 43.2ZM118.302 42.7L118.487 32.7017C115.294 32.6426 112.264 34.1122 110.334 36.6567C108.404 39.2012 107.806 42.5145 108.723 45.5735L118.302 42.7ZM110.802 79.3L101.109 76.8375C101.106 76.8499 101.103 76.8623 101.1 76.8746L110.802 79.3ZM108.402 89.3L98.6674 87.0096L108.402 89.3ZM106.002 98.8L96.4136 95.9591C96.3854 96.0544 96.3586 96.15 96.3332 96.2461L106.002 98.8ZM100.102 101.9L92.2265 108.063C92.3258 108.19 92.4281 108.314 92.5333 108.436L100.102 101.9ZM103.702 73.7L113.395 76.1575L113.398 76.1467L103.702 73.7ZM109.534 32.8109L92.4342 33.6109L93.3689 53.5891L110.469 52.7891L109.534 32.8109ZM92.9016 33.6C94.6543 33.6 95.9491 34.1953 96.6453 34.6384C97.2812 35.043 97.5005 35.3643 97.374 35.208L81.8291 47.792C83.5898 49.967 87.2541 53.6 92.9016 53.6V33.6ZM97.374 35.208C97.1772 34.9649 97.9016 35.752 97.9016 37.4H77.9016C77.9016 41.7146 79.7593 45.2351 81.8291 47.792L97.374 35.208ZM97.9016 37.4C97.9016 40.0587 96.7419 42.1918 95.4497 43.5294C94.3515 44.6661 93.3045 45.1033 93.0685 45.1985C92.6254 45.3773 92.8671 45.2028 94.4754 45.0617L92.7277 25.1382C90.536 25.3305 87.9278 25.706 85.5846 26.6515C83.7788 27.3802 77.9016 30.291 77.9016 37.4H97.9016ZM94.4604 45.063C97.816 44.7738 105.794 44.6 118.902 44.6V24.6C106.009 24.6 97.1205 24.7596 92.7427 25.1369L94.4604 45.063ZM118.902 44.6C125.01 44.6 129.359 45.2781 132.296 46.2722L138.708 27.3278C132.978 25.3885 126.26 24.6 118.902 24.6V44.6ZM132.339 46.2868C133.163 46.5612 133.747 46.799 134.138 46.9825C134.545 47.1737 134.617 47.2479 134.491 47.1541C134.382 47.0736 133.83 46.651 133.269 45.7764C132.653 44.8151 132.102 43.4078 132.102 41.7H152.102C152.102 36.2487 148.684 32.7822 146.413 31.0959C144.075 29.3602 141.274 28.1833 138.664 27.3132L132.339 46.2868ZM132.102 41.7C132.102 40.5316 132.369 39.0271 133.241 37.5209C134.112 36.0157 135.281 35.0377 136.287 34.4588C137.996 33.475 139.27 33.6 138.802 33.6V53.6C140.533 53.6 143.458 53.4083 146.266 51.7912C149.908 49.6944 152.102 45.9195 152.102 41.7H132.102ZM138.802 33.6C136.937 33.6 134.132 33.4842 130.278 33.2229L128.925 53.1771C132.938 53.4491 136.266 53.6 138.802 53.6V33.6ZM130.278 33.2229C126.196 32.9462 122.265 32.7717 118.487 32.7017L118.116 52.6983C121.538 52.7616 125.14 52.9205 128.925 53.1771L130.278 33.2229ZM108.723 45.5735C108.606 45.1808 108.602 44.931 108.602 44.9H128.602C128.602 43.269 128.398 41.5525 127.88 39.8265L108.723 45.5735ZM108.602 44.9C108.602 44.4475 108.632 44.736 108.284 46.6031C107.993 48.1639 107.537 50.3274 106.899 53.1387C105.627 58.747 103.702 66.6334 101.109 76.8375L120.494 81.7625C123.101 71.5 125.076 63.4196 126.404 57.5613C127.067 54.6392 127.586 52.1945 127.944 50.2719C128.246 48.6557 128.602 46.5858 128.602 44.9H108.602ZM101.1 76.8746C100.549 79.0793 99.7357 82.4693 98.6674 87.0096L118.136 91.5904C119.201 87.064 119.987 83.7873 120.503 81.7254L101.1 76.8746ZM98.6674 87.0096C97.5993 91.5489 96.8568 94.4632 96.4136 95.9591L115.59 101.641C116.213 99.5368 117.07 96.1178 118.136 91.5904L98.6674 87.0096ZM96.3332 96.2461C96.1385 96.9831 95.9707 97.5449 95.8335 97.9565C95.6897 98.3879 95.6166 98.5421 95.6322 98.5088C95.6434 98.4852 95.7069 98.3516 95.832 98.1467C95.9494 97.9541 96.1929 97.5799 96.5884 97.1339C97.1583 96.4913 99.4742 94.1 103.502 94.1V114.1C107.896 114.1 110.591 111.488 111.552 110.404C112.656 109.159 113.335 107.859 113.721 107.041C114.532 105.322 115.157 103.295 115.67 101.354L96.3332 96.2461ZM103.502 94.1C105.494 94.1 106.833 94.8303 107.334 95.1543C107.827 95.4734 107.928 95.6631 107.67 95.3638L92.5333 108.436C94.0939 110.243 97.812 114.1 103.502 114.1V94.1ZM107.977 95.7369C107.87 95.6001 107.952 95.6702 108.064 95.956C108.185 96.2641 108.302 96.7302 108.302 97.3H88.3016C88.3016 101.611 90.0268 105.252 92.2265 108.063L107.977 95.7369ZM108.302 97.3C108.302 98.0331 108.2 98.205 108.461 96.8432C108.653 95.8374 108.961 94.398 109.4 92.4805C110.274 88.6606 111.601 83.232 113.395 76.1575L94.0082 71.2425C92.2018 78.368 90.8295 83.9727 89.9035 88.0195C89.4422 90.0354 89.0749 91.7376 88.8175 93.0818C88.6283 94.07 88.3016 95.8003 88.3016 97.3H108.302ZM113.398 76.1467C117.003 61.857 119.278 50.9071 119.957 43.7431L100.046 41.8568C99.5248 47.3596 97.5997 57.0097 94.0055 71.2533L113.398 76.1467ZM167.317 65.5L157.893 68.8441C157.905 68.877 157.916 68.9098 157.928 68.9425L167.317 65.5ZM164.117 61L169.664 52.6795C167.251 51.0708 164.258 50.5889 161.462 51.3588L164.117 61ZM152.217 71.7L143.523 66.7599C143.516 66.7708 143.51 66.7817 143.504 66.7926L152.217 71.7ZM151.117 97.7L146.645 106.644C148.618 107.631 150.861 107.937 153.026 107.516L151.117 97.7ZM163.317 87.9L154.742 82.755C154.736 82.7651 154.73 82.7751 154.724 82.7852L163.317 87.9ZM142.117 72.8L132.994 68.7061C132.979 68.7387 132.965 68.7714 132.95 68.8041L142.117 72.8ZM151.217 60L157.877 67.4594L157.885 67.4524L151.217 60ZM172.817 60L164.949 66.1714C164.968 66.1967 164.988 66.2219 165.008 66.247L172.817 60ZM173.317 87.1L182.379 91.3289C182.386 91.3136 182.393 91.2983 182.4 91.283L173.317 87.1ZM163.617 99.6L169.88 107.396C169.885 107.392 169.89 107.388 169.895 107.384L163.617 99.6ZM142.117 99.8L134.015 105.661L142.117 99.8ZM178.417 71.9C178.417 68.5346 177.869 65.2291 176.706 62.0575L157.928 68.9425C158.232 69.7709 158.417 70.7321 158.417 71.9H178.417ZM176.741 62.1559C175.505 58.6727 173.337 55.1282 169.664 52.6795L158.57 69.3205C158.165 69.0503 157.924 68.7702 157.818 68.6202C157.724 68.4883 157.778 68.5215 157.893 68.8441L176.741 62.1559ZM161.462 51.3588C153.404 53.5779 147.617 59.553 143.523 66.7599L160.912 76.6401C163.484 72.1136 165.631 70.9554 166.772 70.6412L161.462 51.3588ZM143.504 66.7926C139.638 73.6576 137.317 80.8108 137.317 88.1H157.317C157.317 85.1225 158.263 81.3424 160.93 76.6074L143.504 66.7926ZM137.317 88.1C137.317 93.8716 138.613 102.628 146.645 106.644L155.589 88.7557C156.202 89.062 156.706 89.4783 157.071 89.9077C157.418 90.3147 157.547 90.6234 157.565 90.6695C157.58 90.7067 157.51 90.5403 157.441 90.0848C157.373 89.6338 157.317 88.9845 157.317 88.1H137.317ZM153.026 107.516C161.471 105.874 167.63 100.205 171.91 93.0148L154.724 82.7852C152.338 86.7946 150.364 87.6592 149.208 87.8838L153.026 107.516ZM171.892 93.045C175.933 86.3106 178.417 79.2063 178.417 71.9H158.417C158.417 74.5937 157.502 78.1561 154.742 82.755L171.892 93.045ZM151.241 76.8939C153.078 72.7987 155.329 69.735 157.877 67.4594L144.557 52.5406C139.639 56.9317 135.823 62.4013 132.994 68.7061L151.241 76.8939ZM157.885 67.4524C160.409 65.194 162.002 64.9 162.817 64.9V44.9C155.766 44.9 149.625 48.006 144.549 52.5476L157.885 67.4524ZM162.817 64.9C163.473 64.9 164.003 64.9651 164.949 66.1714L180.686 53.8286C176.298 48.2349 170.162 44.9 162.817 44.9V64.9ZM165.008 66.247C166.061 67.5622 166.817 69.3691 166.817 72.3H186.817C186.817 65.4975 184.907 59.1045 180.626 53.753L165.008 66.247ZM166.817 72.3C166.817 75.4399 166.061 78.9507 164.234 82.917L182.4 91.283C185.24 85.1159 186.817 78.7601 186.817 72.3H166.817ZM164.255 82.8711C162.541 86.5449 160.239 89.4777 157.34 91.8159L169.895 107.384C175.262 103.056 179.427 97.6551 182.379 91.3289L164.255 82.8711ZM157.355 91.8038C154.813 93.8458 152.637 94.5 150.617 94.5V114.5C157.797 114.5 164.288 111.888 169.88 107.396L157.355 91.8038ZM150.617 94.5C150.542 94.5 150.548 94.4921 150.611 94.5079C150.676 94.5243 150.739 94.5504 150.781 94.5737C150.878 94.6271 150.656 94.5426 150.219 93.9388L134.015 105.661C137.865 110.983 143.533 114.5 150.617 114.5V94.5ZM150.219 93.9388C149.457 92.885 148.717 91.1095 148.717 87.9H128.717C128.717 94.2905 130.244 100.448 134.015 105.661L150.219 93.9388ZM148.717 87.9C148.717 84.6172 149.477 80.942 151.284 76.7959L132.95 68.8041C130.224 75.058 128.717 81.4495 128.717 87.9H148.717ZM218.93 57.7L228.568 60.3634C228.59 60.2843 228.611 60.2049 228.631 60.1254L218.93 57.7ZM219.73 55.5L228.05 61.047V61.047L219.73 55.5ZM224.73 57.5L216.656 63.4002C216.704 63.4664 216.753 63.5321 216.803 63.5971L224.73 57.5ZM222.33 77.9L212.784 74.9211L222.33 77.9ZM215.53 100.3L205.923 97.5222C205.92 97.5324 205.917 97.5426 205.914 97.5528L215.53 100.3ZM211.33 88.9L220.901 91.7966C222.356 86.9891 220.019 81.8483 215.44 79.7838C210.861 77.7192 205.461 79.3717 202.822 83.6451L211.33 88.9ZM202.23 100.1L195.548 92.6595L202.23 100.1ZM185.63 100.7L178.37 107.577L185.63 100.7ZM187.53 69.2L178.218 65.5536C178.214 65.5651 178.209 65.5767 178.205 65.5882L187.53 69.2ZM199.93 56.6L191.986 62.6745C192.12 62.8492 192.259 63.0195 192.404 63.185L199.93 56.6ZM198.63 66.8L207.606 71.2067C207.617 71.1855 207.627 71.1643 207.637 71.143L198.63 66.8ZM193.23 79.8L202.624 83.2276C202.629 83.2142 202.634 83.2007 202.639 83.1872L193.23 79.8ZM191.53 95.5L184.13 102.227C184.237 102.344 184.346 102.459 184.459 102.571L191.53 95.5ZM202.93 89.8L195.087 83.596C195.068 83.6201 195.049 83.6444 195.03 83.6688L202.93 89.8ZM212.53 74.2L203.526 69.8497L212.53 74.2ZM228.631 60.1254C228.712 59.8038 228.749 59.7076 228.728 59.7674C228.715 59.8034 228.667 59.9304 228.578 60.1205C228.493 60.3001 228.325 60.6345 228.05 61.047L211.409 49.953C210.098 51.9196 209.507 54.158 209.228 55.2746L228.631 60.1254ZM228.05 61.047C226.711 63.0561 224.922 64.0425 223.683 64.4799C222.538 64.8842 221.673 64.9 221.43 64.9V44.9C219.837 44.9 214.621 45.1359 211.409 49.953L228.05 61.047ZM221.43 64.9C218.772 64.9 217.136 63.6963 216.766 63.4049C216.329 63.0606 216.306 62.9216 216.656 63.4002L232.804 51.5998C231.887 50.3451 230.68 48.9061 229.143 47.6951C227.674 46.537 225.021 44.9 221.43 44.9V64.9ZM216.803 63.5971C217.027 63.888 217.018 63.9455 216.945 63.7639C216.863 63.5595 216.73 63.1181 216.73 62.5H236.73C236.73 58.0107 234.847 54.2513 232.656 51.4029L216.803 63.5971ZM216.73 62.5C216.73 61.9365 216.783 61.5257 216.797 61.4141C216.808 61.3289 216.818 61.2653 216.824 61.2283C216.831 61.1902 216.835 61.1671 216.836 61.1617C216.838 61.1534 216.832 61.1835 216.815 61.2612C216.798 61.3366 216.774 61.4401 216.741 61.5755C216.602 62.1428 216.367 63.0182 216.014 64.2528C215.314 66.7028 214.243 70.2456 212.784 74.9211L231.876 80.8789C233.35 76.1544 234.478 72.4306 235.245 69.7472C235.626 68.4151 235.941 67.2572 236.169 66.3245C236.281 65.8636 236.395 65.3689 236.486 64.8883C236.539 64.6057 236.73 63.6273 236.73 62.5H216.73ZM212.784 74.9211C209.842 84.3483 207.552 91.891 205.923 97.5222L225.136 103.078C226.708 97.6423 228.951 90.2517 231.876 80.8789L212.784 74.9211ZM205.914 97.5528C205.683 98.3611 205.665 97.9514 206.307 97.158C206.679 96.6985 207.358 96.0081 208.426 95.4328C209.548 94.8287 210.83 94.5 212.13 94.5V114.5C216.564 114.5 219.863 112.199 221.852 109.742C223.628 107.549 224.576 105.039 225.145 103.047L205.914 97.5528ZM212.13 94.5C213.158 94.5 214.301 94.7302 215.402 95.2807C216.478 95.8187 217.215 96.5119 217.669 97.0676L202.19 109.732C204.488 112.541 207.959 114.5 212.13 114.5V94.5ZM217.669 97.0676C218.692 98.3172 218.96 99.4282 219.011 99.6549C219.074 99.9369 219.03 99.9061 219.03 99.4H199.03C199.03 101.633 199.227 106.11 202.19 109.732L217.669 97.0676ZM219.03 99.4C219.03 99.5219 219.037 98.9991 219.373 97.4647C219.681 96.0583 220.178 94.1859 220.901 91.7966L201.758 86.0034C200.271 90.918 199.03 95.7749 199.03 99.4H219.03ZM202.822 83.6451C200.42 87.5333 197.973 90.4827 195.548 92.6595L208.911 107.54C213.02 103.851 216.639 99.3334 219.838 94.1549L202.822 83.6451ZM195.548 92.6595C194.4 93.6904 193.593 94.1934 193.138 94.4162C192.707 94.6265 192.774 94.5 193.23 94.5V114.5C199.55 114.5 204.861 111.177 208.911 107.54L195.548 92.6595ZM193.23 94.5C193.363 94.5 193.499 94.5169 193.621 94.5466C193.741 94.5758 193.803 94.6066 193.802 94.6057C193.788 94.5988 193.467 94.4325 192.889 93.8226L178.37 107.577C182.047 111.459 187.04 114.5 193.23 114.5V94.5ZM192.889 93.8226C192.28 93.1797 192.066 92.7817 192.009 92.6594C191.97 92.5746 192.03 92.6815 192.03 92.9H172.03C172.03 98.8378 174.771 103.778 178.37 107.577L192.889 93.8226ZM192.03 92.9C192.03 88.3207 193.398 81.737 196.855 72.8118L178.205 65.5882C174.328 75.5964 172.03 84.8126 172.03 92.9H192.03ZM196.841 72.8464C198.623 68.2957 200.04 65.4607 201.038 63.9269C201.545 63.1465 201.679 63.1209 201.365 63.3895C201.103 63.6144 199.522 64.9 196.83 64.9V44.9C192.904 44.9 190.011 46.7815 188.357 48.198C186.651 49.6582 185.314 51.4201 184.272 53.0231C182.169 56.2559 180.169 60.571 178.218 65.5536L196.841 72.8464ZM196.83 64.9C195.781 64.9 194.681 64.6332 193.696 64.0931C192.763 63.5812 192.224 62.9861 191.986 62.6745L207.873 50.5255C205.516 47.4432 201.751 44.9 196.83 44.9V64.9ZM192.404 63.185C192.144 62.8877 191.847 62.4445 191.627 61.8639C191.406 61.2815 191.33 60.7338 191.33 60.3H211.33C211.33 56.4449 209.962 52.8797 207.455 50.015L192.404 63.185ZM191.33 60.3C191.33 59.7427 191.38 59.3002 191.418 59.0312C191.458 58.7477 191.504 58.5259 191.535 58.3858C191.596 58.1165 191.65 57.9552 191.651 57.9503C191.654 57.941 191.597 58.1132 191.42 58.5389C191.075 59.3695 190.492 60.6519 189.622 62.457L207.637 71.143C208.567 69.2148 209.335 67.5471 209.89 66.2111C210.163 65.5535 210.442 64.8382 210.67 64.1372C210.776 63.8128 211.33 62.2044 211.33 60.3H191.33ZM189.653 62.3933C187.65 66.4728 185.711 71.1623 183.821 76.4128L202.639 83.1872C204.348 78.4377 206.009 74.4605 207.606 71.2067L189.653 62.3933ZM183.835 76.3724C181.785 81.9923 180.53 87.5275 180.53 92.8H200.53C200.53 90.6059 201.074 87.4743 202.624 83.2276L183.835 76.3724ZM180.53 92.8C180.53 96.1476 181.656 99.5052 184.13 102.227L198.929 88.7733C199.429 89.3229 199.864 90.0113 200.157 90.8019C200.446 91.5805 200.53 92.2794 200.53 92.8H180.53ZM184.459 102.571C186.979 105.092 190.314 106.5 193.93 106.5V86.5C194.681 86.5 195.566 86.6401 196.476 87.0192C197.384 87.3975 198.092 87.9203 198.601 88.4289L184.459 102.571ZM193.93 106.5C198.155 106.5 201.611 104.663 204.051 102.846C206.545 100.989 208.794 98.5538 210.83 95.9312L195.03 83.6688C193.599 85.5128 192.614 86.4272 192.108 86.8037C191.549 87.2203 192.237 86.5 193.93 86.5V106.5ZM210.773 96.004C214.824 90.8826 218.397 85.0419 221.534 78.5503L203.526 69.8497C200.929 75.2248 198.102 79.7841 195.087 83.596L210.773 96.004ZM221.534 78.5503C224.6 72.2046 226.974 66.1343 228.568 60.3634L209.291 55.0366C208.085 59.399 206.193 64.3288 203.526 69.8497L221.534 78.5503ZM236.874 100L230.177 107.426C230.204 107.45 230.231 107.474 230.258 107.498L236.874 100ZM235.974 74.7L227.074 70.1412V70.1412L235.974 74.7ZM246.774 60.7L240.229 53.1394C240.21 53.1556 240.192 53.172 240.173 53.1884L246.774 60.7ZM266.974 58.6L259.309 65.0222L266.974 58.6ZM269.574 66.5L276.645 73.5711C276.859 73.3573 277.063 73.134 277.256 72.9018L269.574 66.5ZM247.874 72.9L239.905 66.8598L247.874 72.9ZM242.574 94.4L235.697 101.66C235.759 101.718 235.821 101.776 235.885 101.833L242.574 94.4ZM256.874 95.2L259.551 104.835C259.609 104.819 259.666 104.802 259.724 104.785L256.874 95.2ZM262.574 93.1L267.046 102.044C267.163 101.986 267.279 101.925 267.393 101.862L262.574 93.1ZM260.574 100.7L265.398 109.459C265.413 109.452 265.427 109.444 265.441 109.436L260.574 100.7ZM247.774 94.5C246.755 94.5 245.397 94.1841 243.49 92.5016L230.258 107.498C235.151 111.816 241.06 114.5 247.774 114.5V94.5ZM243.572 92.5743C242.022 91.176 241.774 90.1791 241.774 89.2H221.774C221.774 96.4876 224.927 102.691 230.177 107.426L243.572 92.5743ZM241.774 89.2C241.774 87.1476 242.488 83.9186 244.875 79.2588L227.074 70.1412C223.861 76.4147 221.774 82.8524 221.774 89.2H241.774ZM244.875 79.2588C247.129 74.8571 249.966 71.2075 253.375 68.2116L240.173 53.1884C234.782 57.9258 230.419 63.6095 227.074 70.1412L244.875 79.2588ZM253.319 68.2606C256.702 65.3326 258.797 64.9 259.774 64.9V44.9C252.351 44.9 245.78 48.334 240.229 53.1394L253.319 68.2606ZM259.774 64.9C259.699 64.9 259.576 64.8906 259.426 64.8545C259.275 64.8183 259.147 64.7673 259.054 64.7193C258.862 64.621 258.97 64.6179 259.309 65.0222L274.639 52.1778C271.046 47.8892 266.002 44.9 259.774 44.9V64.9ZM259.309 65.0222C259.629 65.4045 259.859 65.7153 260.019 65.9545C260.18 66.1951 260.252 66.3362 260.273 66.3797C260.326 66.4895 260.074 66.0188 260.074 65.1H280.074C280.074 59.7013 277.222 55.2601 274.639 52.1778L259.309 65.0222ZM260.074 65.1C260.074 64.3081 260.201 63.4123 260.532 62.4866C260.864 61.5577 261.345 60.7548 261.892 60.0982L277.256 72.9018C279.127 70.6576 280.074 67.9107 280.074 65.1H260.074ZM262.503 59.4289C264.707 57.2255 267.199 57 268.074 57V77C270.282 77 273.775 76.4412 276.645 73.5711L262.503 59.4289ZM268.074 57C268.816 57 269.424 57.0907 269.852 57.1793C270.286 57.269 270.627 57.376 270.859 57.4576C271.301 57.6138 271.56 57.7561 271.588 57.771C271.632 57.7952 271.387 57.6598 270.774 57.2L258.774 73.2C259.761 73.9402 260.866 74.7048 262.011 75.329C262.758 75.7368 265.086 77 268.074 77V57ZM270.774 57.2C268.376 55.4016 264.836 53.4 260.474 53.4V73.4C259.518 73.4 258.875 73.1735 258.638 73.0744C258.413 72.9802 258.456 72.9612 258.774 73.2L270.774 57.2ZM260.474 53.4C255.704 53.4 251.67 55.4785 248.604 57.7902C245.495 60.1345 242.608 63.2922 239.905 66.8598L255.844 78.9402C257.94 76.1744 259.554 74.5821 260.644 73.7598C261.778 72.9048 261.644 73.4 260.474 73.4V53.4ZM239.905 66.8598C234.6 73.8594 230.674 81.5428 230.674 89.5H250.674C250.674 87.9905 251.549 84.6072 255.844 78.9402L239.905 66.8598ZM230.674 89.5C230.674 93.7635 232.07 98.224 235.697 101.66L249.452 87.1405C249.898 87.5633 250.256 88.1012 250.473 88.6597C250.676 89.183 250.674 89.5146 250.674 89.5H230.674ZM235.885 101.833C239.881 105.43 244.938 106.2 248.874 106.2V86.2C248.502 86.2 248.238 86.1803 248.067 86.1597C247.896 86.139 247.848 86.1209 247.896 86.1348C247.996 86.1633 248.58 86.3517 249.264 86.9671L235.885 101.833ZM248.874 106.2C252.556 106.2 256.141 105.782 259.551 104.835L254.198 85.5648C252.808 85.951 251.059 86.2 248.874 86.2V106.2ZM259.724 104.785C262.41 103.987 264.95 103.092 267.046 102.044L258.102 84.1557C257.532 84.4408 256.272 84.9465 254.025 85.6146L259.724 104.785ZM267.393 101.862C267.754 101.664 267.838 101.648 267.693 101.699C267.611 101.729 267.407 101.796 267.1 101.86C266.799 101.923 266.308 102 265.674 102V82C262.239 82 259.298 83.4893 257.755 84.3378L267.393 101.862ZM265.674 102C264.766 102 262.248 101.766 260.028 99.5461C257.808 97.3259 257.574 94.8081 257.574 93.9H277.574C277.574 91.7252 277.024 88.2574 274.17 85.4039C271.317 82.5505 267.849 82 265.674 82V102ZM257.574 93.9C257.574 92.3188 258.059 91.1611 258.395 90.5561C258.713 89.9848 258.969 89.7679 258.856 89.8772C258.762 89.9685 258.485 90.2149 257.928 90.6019C257.383 90.9812 256.654 91.437 255.707 91.9643L265.441 109.436C268.118 107.945 270.725 106.231 272.792 104.223C274.646 102.422 277.574 98.9208 277.574 93.9H257.574ZM255.75 91.9405C252.151 93.9226 249.549 94.5 247.774 94.5V114.5C253.866 114.5 259.797 112.544 265.398 109.459L255.75 91.9405ZM294.405 29.9L286.213 35.6346C286.255 35.6948 286.298 35.7544 286.341 35.8136L294.405 29.9ZM293.305 57.9L283.519 55.843C283.516 55.8589 283.513 55.8747 283.509 55.8906L293.305 57.9ZM284.905 89.1L275.419 85.9377C273.784 90.8413 276.156 96.1825 280.89 98.2582C285.623 100.334 291.159 98.4601 293.658 93.9359L284.905 89.1ZM301.605 63L293.947 56.5703L293.939 56.5793L301.605 63ZM319.205 59.4L311.227 65.4283C311.255 65.4656 311.283 65.5026 311.312 65.5394L319.205 59.4ZM320.205 81.9L310.57 79.2236C310.567 79.2338 310.565 79.2441 310.562 79.2544L320.205 81.9ZM308.705 91.4L299.243 88.1646C299.24 88.1756 299.236 88.1867 299.232 88.1977L308.705 91.4ZM313.105 67.5L305.105 73.5V73.5L313.105 67.5ZM303.105 72.6L295.188 66.492C295.167 66.5184 295.147 66.545 295.127 66.5717L303.105 72.6ZM296.005 82.7L287.662 77.1874C287.639 77.2223 287.616 77.2573 287.594 77.2924L296.005 82.7ZM291.605 89.5L283.285 83.953C283.246 84.012 283.207 84.0714 283.169 84.1312L291.605 89.5ZM289.005 93.6L280.557 88.2495C280.514 88.3175 280.472 88.386 280.431 88.455L289.005 93.6ZM286.305 98.1L294.717 103.508C294.773 103.421 294.827 103.333 294.88 103.245L286.305 98.1ZM284.105 101.2L276.162 95.1255C276.072 95.2424 275.986 95.3613 275.901 95.4821L284.105 101.2ZM277.405 102.3L269.859 108.862C269.908 108.917 269.957 108.972 270.006 109.027L277.405 102.3ZM276.505 92.6L266.828 90.0799C266.825 90.0938 266.821 90.1077 266.817 90.1217L276.505 92.6ZM282.805 66.3L273 64.3388C272.989 64.3921 272.979 64.4455 272.969 64.499L282.805 66.3ZM298.005 30.8C298.005 30.2007 298.156 31.4358 297.122 33.116C296.515 34.1027 295.536 35.169 294.118 35.9367C292.722 36.6929 291.381 36.9 290.405 36.9V16.9C286.336 16.9 282.413 18.8575 280.089 22.634C278.255 25.6142 278.005 28.7993 278.005 30.8H298.005ZM290.405 36.9C288.28 36.9 286.874 36.0392 286.355 35.65C285.882 35.2948 285.865 35.1368 286.213 35.6346L302.598 24.1654C300.95 21.8115 296.997 16.9 290.405 16.9V36.9ZM286.341 35.8136C286.644 36.226 286.715 36.4213 286.706 36.3965C286.699 36.3801 286.673 36.3073 286.649 36.1824C286.625 36.0558 286.605 35.8921 286.605 35.7H306.605C306.605 31.1046 304.784 27.1425 302.47 23.9864L286.341 35.8136ZM286.605 35.7C286.605 38.8774 285.724 45.354 283.519 55.843L303.092 59.957C305.287 49.5127 306.605 41.1892 306.605 35.7H286.605ZM283.509 55.8906C281.459 65.888 278.763 75.9033 275.419 85.9377L294.392 92.2623C297.981 81.4967 300.886 70.712 303.102 59.9094L283.509 55.8906ZM293.658 93.9359C300.254 81.9974 305.446 73.9893 309.272 69.4207L293.939 56.5793C288.832 62.6773 282.89 72.0692 276.153 84.2641L293.658 93.9359ZM309.264 69.4297C311.216 67.1049 312.677 65.7897 313.631 65.1239C314.64 64.419 314.413 64.9 313.205 64.9V44.9C308.798 44.9 305.037 46.731 302.18 48.726C299.267 50.7603 296.528 53.4951 293.947 56.5703L309.264 69.4297ZM313.205 64.9C312.173 64.9 311.358 64.6735 310.827 64.4603C310.316 64.2549 310.042 64.0526 310.005 64.025C309.964 63.994 310.064 64.0644 310.299 64.3117C310.529 64.5542 310.839 64.9156 311.227 65.4283L327.184 53.3717C325.74 51.4607 324.029 49.5426 322.005 48.025C320.013 46.5309 317.006 44.9 313.205 44.9V64.9ZM311.312 65.5394C312.65 67.2596 312.705 68.1592 312.705 68.4H332.705C332.705 62.6408 330.428 57.5404 327.099 53.2606L311.312 65.5394ZM312.705 68.4C312.705 69.9667 312.196 73.3698 310.57 79.2236L329.841 84.5764C331.548 78.4302 332.705 72.8333 332.705 68.4H312.705ZM310.562 79.2544C308.553 86.5752 306.764 91.4244 305.3 94.2526C304.555 95.6907 304.155 96.0891 304.244 96.0008C304.318 95.9268 305.777 94.5 308.505 94.5V114.5C313.067 114.5 316.389 112.132 318.355 110.174C320.335 108.203 321.855 105.776 323.061 103.447C325.497 98.7423 327.724 92.2914 329.849 84.5456L310.562 79.2544ZM308.505 94.5C309.267 94.5 310.409 94.6308 311.681 95.2088C313.009 95.8123 314.117 96.7421 314.92 97.8364C315.679 98.8715 316.011 99.8391 316.157 100.438C316.302 101.029 316.305 101.421 316.305 101.5H296.305C296.305 103.427 296.606 106.684 298.791 109.664C301.401 113.222 305.247 114.5 308.505 114.5V94.5ZM316.305 101.5C316.305 101.643 316.304 101.177 316.635 99.7869C316.94 98.5036 317.439 96.7924 318.179 94.6023L299.232 88.1977C297.652 92.871 296.305 97.6648 296.305 101.5H316.305ZM318.168 94.6354C319.982 89.3294 321.399 84.7256 322.374 80.8831C323.301 77.2262 324.005 73.5935 324.005 70.5H304.005C304.005 71.0065 303.827 72.6571 302.987 75.9669C302.195 79.091 300.962 83.1372 299.243 88.1646L318.168 94.6354ZM324.005 70.5C324.005 67.5813 323.247 64.356 321.105 61.5L305.105 73.5C304.163 72.2439 304.005 71.0187 304.005 70.5H324.005ZM321.105 61.5C318.948 58.6228 315.433 56.3 310.905 56.3V76.3C309.731 76.3 308.475 76.0108 307.317 75.379C306.203 74.7716 305.498 74.0232 305.105 73.5L321.105 61.5ZM310.905 56.3C306.766 56.3 303.533 58.3527 301.773 59.6494L313.637 75.7506C313.867 75.5817 313.801 75.6641 313.464 75.8116C313.143 75.9517 312.239 76.3 310.905 76.3V56.3ZM301.773 59.6494C299.366 61.4232 297.153 63.9447 295.188 66.492L311.023 78.708C311.784 77.7223 312.406 76.991 312.896 76.4694C313.406 75.9258 313.65 75.7416 313.637 75.7506L301.773 59.6494ZM295.127 66.5717C292.712 69.7676 290.224 73.3102 287.662 77.1874L304.349 88.2126C306.72 84.6231 308.966 81.4324 311.084 78.6283L295.127 66.5717ZM287.594 77.2924C285.173 81.0586 283.761 83.2396 283.285 83.953L299.926 95.047C300.517 94.1604 302.038 91.8081 304.417 88.1076L287.594 77.2924ZM283.169 84.1312C282.696 84.875 281.823 86.2503 280.557 88.2495L297.454 98.9505C298.721 96.9497 299.582 95.5917 300.042 94.8688L283.169 84.1312ZM280.431 88.455C280.257 88.7447 280.159 88.9075 279.995 89.1816C279.915 89.3143 279.969 89.2242 279.89 89.3559C279.86 89.4052 279.868 89.3929 279.838 89.442C279.76 89.5721 279.865 89.3975 279.787 89.5273C279.785 89.5308 279.783 89.5344 279.781 89.5379C279.779 89.5415 279.777 89.545 279.774 89.5485C279.772 89.5521 279.77 89.5556 279.768 89.5591C279.766 89.5626 279.764 89.5662 279.762 89.5697C279.76 89.5732 279.758 89.5767 279.755 89.5803C279.753 89.5838 279.751 89.5873 279.749 89.5908C279.747 89.5943 279.745 89.5979 279.743 89.6014C279.741 89.6049 279.739 89.6084 279.736 89.6119C279.734 89.6159 279.726 89.6289 279.724 89.6329C279.721 89.6369 279.714 89.6499 279.711 89.6539C279.697 89.6779 279.7 89.6719 279.686 89.6958C279.684 89.6992 279.682 89.7027 279.68 89.7062C279.678 89.7097 279.676 89.7131 279.674 89.7166C279.672 89.7201 279.669 89.7236 279.667 89.727C279.665 89.7305 279.663 89.734 279.661 89.7374C279.578 89.8756 279.719 89.6408 279.636 89.7789C279.271 90.3878 279.952 89.2527 279.587 89.8613C279.363 90.2343 279.615 89.8144 279.393 90.1836C279.304 90.3323 279.388 90.1925 279.299 90.3403C279.286 90.3625 279.301 90.3375 279.288 90.3597C279.286 90.3629 279.284 90.3661 279.282 90.3694C279.28 90.3726 279.278 90.3758 279.276 90.379C279.214 90.4819 279.326 90.2955 279.265 90.3983C279.263 90.4015 279.261 90.4047 279.259 90.4079C279.257 90.4112 279.255 90.4144 279.253 90.4176C279.235 90.4468 279.225 90.4651 279.207 90.4941C279.172 90.5522 279.151 90.5879 279.117 90.645C279.117 90.645 279.105 90.6636 279.105 90.6636C279.068 90.7256 279.131 90.6202 279.094 90.6822C279.092 90.6853 279.091 90.6884 279.089 90.6915C279.087 90.6946 279.085 90.6977 279.083 90.7008C279.064 90.7325 279.091 90.6876 279.072 90.7193C279.05 90.7563 279.083 90.7008 279.061 90.7378C279.059 90.7409 279.057 90.7439 279.055 90.747C279.054 90.7501 279.052 90.7532 279.05 90.7562C279.039 90.7737 279.049 90.7571 279.039 90.7746C279.037 90.7777 279.035 90.7807 279.033 90.7838C279.031 90.7868 279.03 90.7899 279.028 90.7929C278.928 90.96 278.953 90.9168 278.856 91.08C278.816 91.1467 278.874 91.0485 278.835 91.1151C278.723 91.3008 278.925 90.9643 278.814 91.15C278.798 91.1765 278.809 91.1582 278.793 91.1847C278.785 91.1979 278.78 91.2061 278.772 91.2192C278.731 91.2879 278.793 91.1849 278.751 91.2535C278.731 91.2878 278.762 91.2364 278.741 91.2706C278.739 91.2735 278.738 91.2763 278.736 91.2792C278.734 91.282 278.733 91.2848 278.731 91.2877C278.721 91.3039 278.73 91.2885 278.721 91.3047C278.719 91.3075 278.717 91.3103 278.716 91.3132C278.714 91.316 278.712 91.3188 278.711 91.3216C278.709 91.3245 278.707 91.3273 278.706 91.3301C278.704 91.3329 278.702 91.3357 278.7 91.3386C278.685 91.3643 278.706 91.3298 278.69 91.3554C278.598 91.5094 278.702 91.3357 278.61 91.4887C278.536 91.6125 278.606 91.4963 278.532 91.6191C278.53 91.6218 278.529 91.6245 278.527 91.6272C278.526 91.6298 278.524 91.6325 278.522 91.6352C278.521 91.6383 278.515 91.6482 278.513 91.6512C278.443 91.7684 278.574 91.5501 278.503 91.6672C278.492 91.6855 278.505 91.665 278.494 91.6832C278.421 91.8035 278.528 91.6264 278.456 91.7465C278.438 91.7765 278.455 91.748 278.437 91.7779C278.398 91.8432 278.457 91.7439 278.418 91.8092C278.417 91.8118 278.415 91.8144 278.413 91.8169C278.412 91.8195 278.41 91.8221 278.409 91.8247C278.403 91.8336 278.405 91.8314 278.399 91.8402C278.398 91.8428 278.396 91.8454 278.395 91.8479C278.393 91.8505 278.392 91.8531 278.39 91.8557C278.389 91.8582 278.387 91.8608 278.386 91.8634C278.384 91.8659 278.382 91.8685 278.381 91.8711C278.14 92.2731 278.476 91.7131 278.237 92.1113C278.197 92.1782 278.207 92.1611 278.167 92.227C278.04 92.4398 278.227 92.128 278.1 92.3398C277.968 92.56 278.165 92.2305 278.034 92.4497C277.984 92.5324 278.019 92.4749 277.97 92.5566C277.619 93.1407 278.072 92.3866 277.731 92.955L294.88 103.245C294.894 103.223 294.895 103.22 294.909 103.198C294.939 103.148 294.908 103.2 294.938 103.15C295.073 102.924 294.86 103.279 294.996 103.052C295.016 103.018 295.006 103.035 295.027 103.001C295.135 102.821 294.949 103.131 295.057 102.951C295.058 102.948 295.06 102.946 295.061 102.944C295.062 102.942 295.063 102.94 295.065 102.938C295.066 102.936 295.067 102.933 295.069 102.931C295.07 102.929 295.071 102.927 295.072 102.925C295.141 102.811 295.02 103.013 295.088 102.899C295.127 102.835 295.081 102.911 295.119 102.847C295.193 102.724 295.174 102.756 295.25 102.63C295.302 102.542 295.214 102.689 295.266 102.602C295.336 102.486 295.214 102.689 295.283 102.574C295.304 102.539 295.271 102.594 295.292 102.56C295.295 102.554 295.297 102.551 295.3 102.545C295.302 102.543 295.303 102.541 295.304 102.538C295.306 102.536 295.307 102.534 295.309 102.531C295.325 102.504 295.301 102.544 295.317 102.517C295.322 102.509 295.329 102.496 295.334 102.488C295.336 102.486 295.337 102.483 295.339 102.481C295.34 102.479 295.342 102.476 295.343 102.474C295.375 102.42 295.319 102.513 295.352 102.459C295.381 102.41 295.339 102.48 295.369 102.43C295.402 102.376 295.345 102.47 295.378 102.416C295.379 102.413 295.381 102.411 295.382 102.409C295.384 102.406 295.385 102.404 295.387 102.401C295.4 102.379 295.515 102.187 295.531 102.161C295.646 101.97 295.49 102.229 295.605 102.036C295.896 101.552 295.334 102.489 295.624 102.005C295.646 101.969 295.622 102.009 295.643 101.973C295.702 101.875 295.623 102.007 295.682 101.909C295.801 101.711 295.877 101.584 296.005 101.37C296.164 101.106 295.889 101.563 296.048 101.299C296.092 101.225 296.024 101.338 296.069 101.264C296.071 101.261 296.073 101.258 296.075 101.255C296.076 101.252 296.078 101.249 296.08 101.246C296.082 101.243 296.083 101.24 296.085 101.237C296.087 101.234 296.089 101.231 296.091 101.228C296.132 101.16 296.093 101.224 296.134 101.156C296.255 100.954 296.056 101.285 296.178 101.083C296.511 100.527 295.932 101.492 296.266 100.935C296.283 100.907 296.34 100.813 296.357 100.784C296.392 100.726 296.506 100.536 296.543 100.473C296.545 100.47 296.547 100.467 296.549 100.464C296.551 100.46 296.553 100.457 296.555 100.454C296.557 100.45 296.559 100.447 296.561 100.444C296.563 100.44 296.565 100.437 296.567 100.434C296.569 100.431 296.571 100.427 296.573 100.424C296.575 100.421 296.577 100.417 296.579 100.414C296.58 100.412 296.59 100.396 296.591 100.394C296.7 100.212 296.505 100.536 296.615 100.354C296.654 100.289 296.6 100.379 296.639 100.314C296.686 100.235 296.604 100.372 296.651 100.294C296.659 100.28 296.655 100.287 296.663 100.273C296.665 100.27 296.667 100.267 296.669 100.263C296.671 100.26 296.673 100.257 296.675 100.253C296.701 100.211 296.662 100.275 296.688 100.233C296.73 100.163 296.694 100.222 296.737 100.151C297.083 99.5745 296.489 100.563 296.836 99.9857C297.138 99.482 296.634 100.322 296.937 99.8172C296.964 99.7727 296.923 99.8405 296.95 99.796C296.985 99.7371 296.927 99.8335 296.963 99.7747C296.965 99.7711 296.967 99.7675 296.969 99.764C296.971 99.7604 296.973 99.7569 296.975 99.7533C296.983 99.7411 296.981 99.7441 296.988 99.7319C297.042 99.6419 296.96 99.779 297.014 99.689C297.386 99.0696 296.668 100.265 297.04 99.6458C297.153 99.4581 296.94 99.812 297.053 99.6242C297.091 99.5603 297.028 99.6664 297.066 99.6025C297.076 99.586 297.082 99.5757 297.092 99.559C297.147 99.4677 297.09 99.5631 297.144 99.4715C297.599 98.7143 296.902 99.8753 297.359 99.1141C297.439 98.9801 297.306 99.2027 297.386 99.0686C297.388 99.0648 297.391 99.061 297.393 99.0572C297.395 99.0534 297.398 99.0496 297.4 99.0458C297.402 99.042 297.404 99.0382 297.407 99.0343C297.409 99.0305 297.411 99.0267 297.414 99.0229C297.466 98.9355 297.416 99.0186 297.469 98.931C297.5 98.8783 297.548 98.7987 297.58 98.745L280.431 88.455ZM277.894 92.6924C277.475 93.3435 276.907 94.1506 276.162 95.1255L292.049 107.274C293.037 105.983 293.936 104.723 294.717 103.508L277.894 92.6924ZM275.901 95.4821C275.304 96.34 275.082 96.53 275.22 96.3991C275.297 96.3271 275.691 95.9587 276.393 95.5662C277.063 95.1915 278.539 94.5 280.605 94.5V114.5C285.13 114.5 288.104 111.74 288.941 110.951C290.246 109.72 291.374 108.26 292.309 106.918L275.901 95.4821ZM280.605 94.5C281.93 94.5 282.965 94.8007 283.612 95.055C284.257 95.3082 284.682 95.5795 284.871 95.7096C285.212 95.9445 285.196 96.0038 284.805 95.5733L270.006 109.027C270.948 110.063 272.132 111.222 273.54 112.19C274.8 113.057 277.282 114.5 280.605 114.5V94.5ZM284.952 95.7382C284.599 95.3323 284.614 95.2745 284.755 95.5425C284.872 95.7658 285.405 96.8289 285.405 98.5H265.405C265.405 103.404 268.323 107.095 269.859 108.862L284.952 95.7382ZM285.405 98.5C285.405 98.7647 285.386 98.8668 285.402 98.7313C285.416 98.6171 285.447 98.3997 285.511 98.0578C285.64 97.3669 285.858 96.3887 286.193 95.0783L266.817 90.1217C266.12 92.8485 265.405 95.99 265.405 98.5H285.405ZM286.183 95.1201C289.507 82.3561 291.699 73.2489 292.642 68.101L272.969 64.499C272.178 68.8178 270.171 77.2439 266.828 90.0799L286.183 95.1201ZM292.611 68.2612C296.055 51.041 298.005 38.2701 298.005 30.8H278.005C278.005 35.9965 276.489 46.8923 273 64.3388L292.611 68.2612Z" fill="#98C900" mask="url(#path-1-outside-1_85_227)"/>
</g>
<defs>
<filter id="filter0_d_85_227" x="26.5812" y="26.8999" width="300.124" height="85.6001" filterUnits="userSpaceOnUse" color-interpolation-filters="sRGB">
<feFlood flood-opacity="0" result="BackgroundImageFix"/>
<feColorMatrix in="SourceAlpha" type="matrix" values="0 0 0 0 0 0 0 0 0 0 0 0 0 0 0 0 0 0 127 0" result="hardAlpha"/>
<feOffset dy="4"/>
<feGaussianBlur stdDeviation="2"/>
<feComposite in2="hardAlpha" operator="out"/>
<feColorMatrix type="matrix" values="0 0 0 0 0 0 0 0 0 0 0 0 0 0 0 0 0 0 0.25 0"/>
<feBlend mode="normal" in2="BackgroundImageFix" result="effect1_dropShadow_85_227"/>
<feBlend mode="normal" in="SourceGraphic" in2="effect1_dropShadow_85_227" result="shape"/>
</filter>
</defs>
</svg>
